<svg xmlns="http://www.w3.org/2000/svg" width="500" height="500">
    <g stroke="red">
        <path class="prefix__path1 prefix__animation"
            d="M321 1.1c-9.7 1.3-18.1 1.9-27.2 1.7-7.3-.2-12.8.1-12.4.5 1.6 1.6 15.7 2.3 27.4 1.3 6.7-.5 19.2-1 27.7-1.1 13.7 0 16 .2 20 2.1 8.2 3.8 14.1 10.4 9.3 10.4-1 0-7.2 1.3-13.8 3-6.6 1.6-15.6 3.4-20 3.8l-8 .9 7.1.2c4.5.1 12.4-1 21.5-2.9 16.3-3.4 15.9-3.3 15.9-2 0 2.3-6.5 8.1-10.3 9.2-2.3.7-6 2.3-8.1 3.7-3.9 2.5-4.4 2.6-21.6 2.6-20.9 0-21 0-21-8.5 0-6.7-1.9-9.8-7.6-12.5-2.7-1.3-4.9-1.5-8.8-1-4.2.5-5.5.3-6.6-1-4.6-5.5-13.2-6-26.1-1.5-10.9 3.8-23.3 5.3-35.4 4.5-14.5-1-34.7-4.2-53.5-8.5-17.7-3.9-20.7-4-18.4-.2 1.5 2.6 11.6 7.1 21 9.5 12 2.9 10.9 5.8-3.3 9.2-7.8 1.8-11 3.6-9.9 5.3 2.1 3.4 16.4 1.4 34.3-4.9 8.8-3.1 12.6-3.5 17-1.8l2.8 1.1-4.9 2.5c-14.5 7.4-42.9 10.4-80.8 8.5-12.2-.7-25.1-1.7-28.4-2.3-6.3-1.2-10-.7-8.9 1.1 2.3 3.7 17.6 7.8 32.6 8.7 10.9.7 13.6 1.6 10.4 3.6-1.1.6-4.5 2.3-7.5 3.5-6.7 2.9-10.2 6-9.8 8.7.5 3.2 3.1 2.9 12.7-1.4 12.7-5.7 28.5-9.6 47.9-11.6 9.1-1 12 2 6.6 7-3.1 2.9-7 3.2-16.9 1.4-12.7-2.4-22.4 1.8-31.2 13.6-2.9 3.9-5.3 7.3-5.3 7.7 0 .4 2.4-.2 5.3-1.4 7.3-3 17.5-5.7 21.9-5.7 4.1-.1 9.7 3.7 8.4 5.7-.9 1.6-9.4 3.9-18.5 5.2-12.6 1.8-19.1 5.8-26 15.9-2.1 3.1-5.3 8.9-7 13-3.1 7.3-7.6 23-6.8 23.7.2.3 2.9-1.1 5.8-3.1 13.5-8.9 26.3-13.3 41.8-14.4 14.9-1.1 21-3.4 28.8-10.6 6.4-6.1 9.8-7 13.3-3.5 4.8 4.8-.1 10-10.5 11.5-8.6 1.2-12.6 3.7-20.5 12.4-8.3 9.1-14.2 13.4-21.2 15.2-2.7.7-4.8 1.6-4.8 1.9 0 .9 11.2 4.7 19 6.5 8.5 1.9 23.6 1.9 31.4-.1 8.1-2 12.3-4.6 24.7-15 16.7-13.9 27.1-20.3 33.2-20.4 2.2 0 2.7.4 2.7 2.4 0 4-12.1 13.3-17.7 13.7-3.7.3 4.4 1.7 10.1 1.8 8 .1 18.2-1.7 23.1-4.2 2.2-1.1 6.7-4.4 10-7.4 6.9-6.2 18.9-12.6 26.9-14.3 4.9-1 6.7-.9 14.3 1.1 6.5 1.7 12.1 2.3 21.8 2.4 11.7.2 13.5.5 18.5 2.9 6.2 2.9 13.4 3.4 16.7 1.1 3.5-2.5 6-10.6 5.4-18l-.3-3-1.5 3.5c-2.7 6.2-4.7 6.4-14.6 1.5-3.9-1.9-8.6-3.5-10.4-3.5-3.2 0-3.3-.1-3.3-4.5 0-2.5-.3-4.5-.7-4.5-.5.1-1.7 1.5-2.8 3.3-1.1 1.7-2.8 3.3-3.7 3.5-1 .2-4.4-1.3-7.7-3.3-5.3-3.3-7.2-3.8-17.6-5.1-6.5-.8-12.7-1.9-13.9-2.6-5.9-3-7.2-6.7-3.2-9.3 3.3-2.2 7.5-3.3 19.1-5.1 5.5-.8 13-2.4 16.8-3.6 8.1-2.6 9.2-2 9.2 5.2 0 6.9 1.6 5.4 5.5-5.4l1.1-2.9 2.5 2.4c1.8 1.7 4.2 2.6 8.7 3.1 12 1.3 16.2 2.1 17 3.2.4.6.5 3.1.2 5.6-.5 4.3-.5 4.4 1.1 2.5 2.4-3 4.4-8.1 4.4-11.4 0-1.6 1.2-6.2 2.6-10.2 1.5-4.2 2.4-8.4 2.1-10.2-.3-2.1.3-4.1 1.9-6.5 2.3-3.4 3.1-8.3 1.8-11.7-1.1-2.6-8.9-7.4-14.5-8.7-4.1-1-6.2-2.3-10.3-6.3-9.8-9.9-22.4-12.1-48.1-8.4zm64 20.4c6.6 3.8 8 8.7 4 13.9-1.3 1.8-1.9 1.8-7.2.7-4.6-1-12.6-4.6-15.2-6.7-.2-.2 1-1.9 2.7-3.8 1.7-1.9 3.3-4.4 3.7-5.6.6-1.9 1.2-2.1 4.3-1.5 2.1.3 5.5 1.7 7.7 3zM279.5 31c1.2.8.9 1.5-2 4.5-10.1 10.4-24.4 10.3-36-.1l-4.3-3.9 4.9-.6c8.2-1 35.8-.9 37.4.1zm-67.2 13.9c-4.6 2.9-7.8 7.3-7.8 10.6 0 3.2 3.3 8.6 6.1 10 4.3 2.3 11.6 1.8 17.7-1 2.8-1.3 5.2-2.2 5.2-1.9 0 .3-1.4 1.9-3 3.7-8.2 8.6-3.5 16.3 9.4 15.5 5.6-.3 6.9-.9 14.4-6.1 9.7-6.9 18.1-10.9 28.8-13.7 10.9-2.8 13.3-2.4 4.4.8-7.9 2.9-14.8 7.1-19 11.7-7.6 8.2-20.9 16.6-30.5 19.1-17.9 4.8-32.9-5.2-25.7-17.1l1.9-3h-6.1c-7.7-.1-12.2-2.4-14.3-7.2-2.1-5.2-1-9.6 3.9-14.5 3.8-3.8 14.5-9.7 17.7-9.8.8 0-.6 1.3-3.1 2.9z"
            stroke-width=".1" />
        <path class="prefix__path2 prefix__animation"
            d="M107 72.6c-5.7 2.4-8.7 2.9-32.5 5.3-6.6.7-10.3 1.7-13.9 3.6-11.9 6.5-20.8 17.8-21.8 27.9-.3 3.1-.4 5.6-.1 5.6.2 0 2.5-2 5.1-4.3 5.8-5.4 14.3-10 22.3-12.1 11.2-2.9 14.2-1.6 8.7 3.6-1.6 1.4-8.9 7-16.3 12.5S43.7 126.1 42.2 128c-6.7 8-11.7 22.4-11.7 34v6.5l3.8-6.5c4.5-7.9 13.7-17.6 17.4-18.5 7.3-1.8 7.8 3.5 1.3 12.7-16 22.5-18 26.8-17.3 38.2.4 5.8 1.3 8.7 4.7 15.9 2.4 4.8 4.7 9 5.2 9.3.5.3.9-3.4.9-8.4 0-18.6 5-32 8.8-23.7 1.5 3.3 1.5 16 0 24.1-1.4 8 .1 17.6 4 24.7 2.4 4.5 11.3 13.7 13.2 13.7.5 0-.1-1.9-1.2-4.3-1.2-2.3-2.3-6.1-2.6-8.5-.4-3.5-.2-4.2 1.2-4.2.9 0 2.5 1.3 3.4 3 .9 1.6 2 3 2.3 3 .4 0 2.9 1.8 5.8 4.1 6.9 5.5 8.1 10 3.8 14.7-3.3 3.5-7.1 5.2-11.9 5.2-3.9 0-4.7-.5-11.3-7.3-3.9-3.9-10.6-11.6-14.8-16.9-11-13.8-12.9-15.1-22.5-15.1-12 .1-12.8.2-15.1 2-2.1 1.8-2.1 1.8 3.6 1.9 7.6.1 10.3 1.6 10.3 5.4 0 3.3 2.3 5.3 13.5 11.8 12.6 7.2 12.3 8.4-.5 2.1-14.1-7-19.2-7.9-23.2-4.3-1.3 1.2-3.4 2.5-4.8 2.9-3.6 1-6.8 3.2-8 5.5-1 1.9-.9 1.9 3.1.5 6.3-2.2 9.1-1.9 12.4 1.5 2.1 2.1 4.6 3.3 9.9 4.5 3.9.9 11.6 3.4 17.1 5.6 18.3 7.2 16.9 7.6-6.3 1.9-16.8-4.1-19.2-4.1-20.6-.4-.3.8-.6 2.4-.6 3.4s-.9 2.1-1.9 2.5c-2.6.8-9.1 8.1-9.1 10.1 0 1.2.9.8 3.5-1.5 4.4-3.8 8-4 10.8-.5 2 2.6 2.1 2.6 11.3 2 11-.8 14.5.3 23.4 7.6 6.9 5.7 11 7.8 15 7.8 4.2 0 6.3 1.2 14.1 8.2 3.6 3.2 7.1 5.8 7.7 5.8.6 0 1.4 1.7 1.7 3.7.4 2.1.8 4.5.9 5.3.4 2.2 2.6-3.6 2.6-6.9 0-1.6.7-4.6 1.6-6.7 2.3-5.5 1.3-10.6-3.1-16.2-3.2-4.1-3.6-5.2-3.1-8.7.6-4.9 6.4-10.8 12.5-12.6 3.9-1.1 4.5-1 12.8 2.8 4.9 2.3 12 5.1 15.8 6.3 7.7 2.4 23.8 3.8 30.2 2.5 3.7-.8 3.7-.8-4.5-2.6-28.4-6.2-55.7-27-68.3-52.1-6.2-12.4-8.3-21.9-8.3-37.8 0-18.1 3.5-31.6 11.6-45.3 2-3.4 3.6-8.7 5.3-17.1 4-19.8 8.5-30.6 17.4-41 4.8-5.7 6.9-10.4 5.6-12.6-1.1-1.8-7.8-1-14 1.6z"
            stroke-width=".1" />
        <path class="prefix__path3 prefix__animation"
            d="M132.9 128c-24.3 12.2-37.4 33.7-37.4 60.8.1 24.9 12.8 46.1 37.3 61.9 3.7 2.4 12.2 7 19 10.2 21.4 10.1 41.3 23.4 45.8 30.7 4.1 6.8 1.7 12.5-6.3 14.9-5.3 1.5-9.8 4.8-9.8 7.1 0 .7-1.1 3-2.5 5-1.9 2.8-2.5 4.9-2.4 8.8.1 5 .1 5.1 1.2 1.8.5-1.8 2.5-4.6 4.4-6.3 3.1-2.6 3.9-2.9 8.1-2.3 2.7.3 7.6 0 11.4-.8l6.6-1.4 2.9 3c1.6 1.7 6.1 5.9 10 9.4 6.1 5.3 7.4 7 8.7 11.6 2 6.8 3.3 7.8 9.3 7.4 4.8-.3 4.8-.3 7.1 4.2 1.2 2.4 2.2 5.7 2.2 7.4 0 2.8 0 2.9 2 1.1 2.8-2.5 2.6-8.9-.3-14.8-1.3-2.5-2-5.2-1.7-5.9 1.7-3.2-1.3-8.3-10.6-17.8-5.2-5.3-9.4-10-9.4-10.3 0-.9 18.9 7.7 25.5 11.7 6.9 4.2 11.2 4.6 16.1 1.5l3.4-2.1 2.8 2.1c1.5 1.1 3.7 3.6 4.7 5.5 2.6 4.9 3.9 4.5 3.2-1-.3-3-1.5-5.8-3.6-8.4-1.7-2.1-3.1-5-3.1-6.4 0-3.6-5-7.2-11.7-8.6-11.5-2.3-19.8-4.3-21.2-5-2.2-1.1 8.3-2.1 20-1.9 11.4.3 15.4-.9 18.5-5.6 2-3.1 5.5-3.2 10.1-.4l3.5 2.2-1.6-3.1c-1.6-3.1-6.1-6.2-8.9-6.2-.7 0-2.3-1.4-3.5-3-3.3-4.4-8.2-4.1-23.4 1.7-11.8 4.5-12.8 4.7-22.8 4.8-12.2 0-17.1-1.8-20.5-7.3-1.1-1.8-3.4-5.1-5.2-7.3-5.1-6.4-3.9-7.4 14.1-10.9 15.8-3 25.1-6.4 43.6-15.8 21-10.7 34.8-16.4 49.7-20.4 10.8-2.9 13.1-3.1 27.8-3.2 14.6-.1 16.5.1 22 2.3 7.9 3.2 15.8 10.9 17.5 17.1 1.7 6.2.8 13.9-2.1 19.7-2 3.9-3.6 5.4-8.7 8.1-3.7 2-7 3.1-8.1 2.7-2.4-.7-13.7-16.9-19.1-27.3-4.4-8.5-7.8-12.2-11.2-12.2-1.1 0-4.2-.7-6.9-1.6-3.7-1.2-5.8-1.4-8.2-.7l-3.2 1 4.4 1.2c6.7 1.9 8.1 3.1 8.1 7.1 0 3 1.2 4.6 9.3 12.9 9.6 9.8 9.1 9.7-3.6-.6-8.5-6.9-12.5-8.3-16.2-5.9-1.3.9-4 1.6-5.9 1.6-1.9 0-4.4.9-5.7 2l-2.4 1.9 5.7.1c5.1 0 5.9.3 7.8 2.9 1.1 1.7 5.5 4.8 9.8 7.1 8.2 4.4 21.7 13.8 20.9 14.6-.3.3-6.4-2.4-13.6-6-7.2-3.6-14.1-6.6-15.4-6.6-1.6 0-2.8.9-3.5 2.6-.7 1.4-2.9 3.2-5 4-3.8 1.6-8.2 5.1-8.2 6.6 0 .5 1.3.2 3-.7 4.2-2.1 8.7-2 9.5.4 1 3.2 3.2 4.3 10.6 5.1 8.5.9 10.3 2.1 18.2 11.8 4.2 5.1 6.7 7.4 9.5 8.3 4.7 1.5 7.4 3.9 12.3 11.1 2.2 3.2 4.5 5.8 5.1 5.8.7 0 .9 1.6.4 4.7l-.6 4.8 2-2.5c1.1-1.4 2-3.4 2-4.5s.7-2.9 1.5-3.9c2.2-2.8 1.8-6.7-1-12.8-1.4-2.9-2.5-6.5-2.5-7.9 0-3.8 3.5-7.7 8.2-9.1 3.6-1.1 4.2-1 5.4.7 2.4 3.2 2.8 8.6 1.5 19.7-.6 5.9-1.4 11.5-1.7 12.5-1.2 4.1 3.2-4.8 6.3-12.6 6.1-15.5 8.7-28.1 8.8-42.1 0-15-2.1-23.2-8.7-33-8.6-13-20.9-18.9-41-19.7-23.5-1-55.9 6.4-89.2 20.6-6.6 2.8-12.2 4.9-12.4 4.7-.2-.3 3.6-3 8.4-6.2 19.3-12.7 39.6-21.4 59.4-25.4 8.4-1.7 31.2-4.8 37.5-5.1 1.1 0-1.1-.9-5-2-15.2-4.2-39-3.3-59.6 2.1-4 1-7.5 1.7-7.8 1.5-.7-.8 14.1-7.1 22.7-9.9 12.4-3.9 20.2-4.9 33.6-4.3 27.1 1.1 49.7 13.5 64 35.1 11.1 16.6 14.6 30.3 12.7 48.9-2.6 26.1-13.9 53.3-32.2 77.7-13 17.2-36 38.7-53.7 50.2-3.4 2.3-6.1 4.3-5.8 4.5.8.8 17.2-6 25.4-10.5 11.7-6.5 24.1-16.1 36-27.8 5.6-5.6 10.2-9.8 10.2-9.4 0 1.8-10 14-17.6 21.5-21.3 21.2-48.1 36.1-79.9 44.4-24.6 6.5-57.6 7.1-87.2 1.6-8.2-1.5 10.4 3.8 20.9 5.9 23.9 4.9 44 5.6 60.8 2.1 7.5-1.6 8.9-1.2 3.6 1-8.2 3.4-23.8 6.4-35.1 6.6l-6 .1 4 1c6.5 1.6 39.4.2 50.9-2.1 27.8-5.7 51.4-16.2 71-31.5 8.2-6.4 19.1-17.3 23.5-23.5l2.4-3.4-6.6 3.7c-7.2 4.1-12.9 4.6-13.5 1.4-.2-1.1 5.7-7.9 16.5-19.1 18.3-18.9 25.5-27.7 33.3-40.7 5.7-9.7 13.9-29.7 17.1-42.1 1.3-4.6 2.7-9 3.2-9.7 2.1-2.7 10.2-.6 12.9 3.2.4.6.8 5 .8 9.7 0 7.6.4 9.4 3 14.7 3.9 7.8 5 8.5 5 2.9 0-3 .6-5.1 2.1-6.8 3.4-3.9 3.9-6.4 3.9-19.5 0-12.1.1-12.9 4.5-26.4 7.7-23.3 9.5-38 5.4-42.1-1.7-1.7-2-3-1.7-6.7.3-2.6.8-5.6 1.2-6.7.6-1.4-.1-1.1-2.2 1.1-1.8 2-3.3 4.8-3.7 7.3-.4 2.5-1.2 4.1-2.1 4.1-1.6 0-2.1 2-2.9 12.5-.3 4.4-1.2 10.5-1.9 13.5-1.4 5.4-1.4 5.3-1.5-9.1-.1-13.8-.2-14.7-2.4-17.1-1.3-1.4-3-4.7-3.7-7.4-.7-2.7-1.6-5.3-2.1-5.8-1.1-1.3-3.1 7.1-2.4 10.4.4 1.7.2 3.1-.5 3.5-.8.5-1 5.2-.6 16.4.6 17 0 16.3-3.3-4.2-1-6.5-2.2-12.1-2.5-12.5-.4-.3-1.2 0-1.8.6-2 2-2.5 1.4-4.3-4.9-2.1-7.5-4.1-6.7-3.8 1.7.1 2.9-.2 5.4-.8 5.4-1.8 0-.9 5.5 2.2 13.4 1.6 4.3 3.3 10 3.6 12.6.7 6.1.8 6.2 7 9.4 5.9 3 12.3 9 12.3 11.8 0 2.4-1.2 2.3-3.6-.3-1-1.2-4.9-3.8-8.5-6-12.9-7.5-17.7-16.7-22.5-42.9-1.4-7.4-3.6-15.8-4.8-18.6-4.6-10.1-13-15.8-25.1-17-3.6-.4-6.5-1-6.5-1.4 0-1.5 4.7-4.8 7.7-5.5 4.7-1 14.2 2.1 19.9 6.4 2.7 2 6.4 6.1 8.2 9.1l3.4 5.5-.4-7.5c-1-16-10.1-26.9-27.1-32.2-8.6-2.7-24.6-2.6-34.6.2-8 2.3-9.4 2.9-25.1 11.2-11.2 5.9-15 7.3-18.1 6.3-4.6-1.5-.4-9 7.9-14.4 7.5-4.8 15.6-7.2 26.7-8l10-.7-6-2.8c-10.9-5-19.9-7-32-7-12.8-.1-19 1.2-30 6.4-12.9 5.9-22.6 14.6-34.7 31-6.8 9.3-9 11.3-12 10.8-1.8-.2-2.4-1-2.6-3.7-.8-7.8 6.4-18.6 16.1-24.1l4.9-2.8-5.8-1.2c-21.5-4.5-44.1 8.2-61.6 34.6-7.3 10.9-10.3 13.3-15 11.5-3.2-1.2-5.8-4.8-5.8-8 0-3.7 7.4-10.2 14.5-12.8l6-2.2h-7.6c-9.7-.1-17.8 2.3-28.4 8.5-21 12.4-23.7 13.1-32.2 8.9-12.7-6.3-21.2-21.3-21.4-37.5v-6.5l-1.6 4c-2.3 6.2-2.8 21.7-.9 29.9 5 21.2 20 36.5 41.6 42.3 5 1.4 10.1 1.8 22.5 1.7 18.7-.1 28.8-1.9 49.7-8.9 7.3-2.4 13.4-4.2 13.7-4 .6.7-16.9 8.7-25.7 11.9-40.5 14.5-79 9.4-99.3-13.2-16-18-19.7-50.3-8.2-71.4 2.9-5.3 10.6-13.9 15.8-17.6 4.7-3.4 1.4-2.6-7.1 1.8z"
            stroke-width=".1" />
        <path class="prefix__path4 prefix__animation"
            d="M27.5 327c0 2 5.2 14.8 8.6 21 7.2 13 17.7 23.7 27.2 27.7 2 .8 10.6 3.3 19.1 5.4 8.5 2.1 18.1 5.1 21.5 6.7 14 6.6 18.1 17.2 6.5 17.2-6.9 0-22.5-5.8-30.1-11.2-3.4-2.3-3.4-2-.7 3.5 7.7 14.9 26.7 32.9 44.4 41.9 25.3 12.9 51.8 15.8 83.8 9.1 8.2-1.7 10.1-3.3 3.9-3.3-10.6 0-31.7-7.8-39-14.5-7.2-6.4-5.1-10.5 5.5-10.5h4.6l-11.2-6.7c-18.8-11.5-27-19.2-24-22.9 1.7-2.1 8.6-1.7 15.1 1 5.4 2.2 20.9 12.2 28.5 18.3l3.3 2.6-.6-4.5c-1.7-12.3 7.4-11.9 26.5 1.1 4.2 2.9 6.1 3.7 6.1 2.7 0-4.1-6.9-19.8-12.1-27.6-11.2-16.7-25.5-26.6-46.8-32.2-8.2-2.1-38.1-3.9-38.1-2.2 0 .5 2.4 1.9 5.4 3.2 8.4 3.6 21.8 11.8 25.1 15.2 2.9 3.1 2.9 3.2 1.1 4.6-3.1 2.2-10.1 1.7-16-1.2-3-1.4-11.4-7.1-18.7-12.6-26.8-19.9-31.5-21.7-58.9-22.8-21-.8-25.2-1.7-34.5-6.9-3-1.7-5.5-2.7-5.5-2.1z"
            stroke-width=".1" />
        <path class="prefix__path5 prefix__animation"
            d="M365.8 342.9c-17 4.9-31.7 15.6-42.2 30.8l-2.2 3.2 10.4-4.9c11.8-5.7 19.3-7.3 20.3-4.5 1.5 3.7-3.3 6.2-20.1 10.4-18.8 4.8-31 10.3-39.7 18.1-3.2 2.8-5.8 5.6-5.8 6.2 0 .7.5.6 1.4-.1 1.8-1.5 16.1-6.7 20.6-7.5 7-1.2 7.9 3.4 1.4 7.4-6.3 3.9-13 5.1-31.4 5.5-14.8.3-19 .8-27.3 3-5.4 1.4-11.5 3.2-13.5 4.1-5.9 2.5-19.2 5.4-25.2 5.5-7.6.1-3.4 1.3 10.4 2.9 14 1.7 39 .8 51.4-1.9 20.6-4.4 41.4-13.3 57.5-24.8 16.1-11.4 34.5-32.1 44.8-50.1l2.9-5.2-3.7.1c-2.1 0-6.6.8-10 1.8z"
            stroke-width=".1" />
    </g>
</svg>